HIERARCHY
ROOT Hips
{
	OFFSET 0.00000 0.00000 0.00000
	CHANNELS 6 Xposition Yposition Zposition Zrotation Yrotation Xrotation 
	JOINT LHipJoint
	{
		OFFSET 0 0 0
		CHANNELS 3 Zrotation Yrotation Xrotation
		JOINT LeftUpLeg
		{
			OFFSET 1.42489 -1.84941 0.69647
			CHANNELS 3 Zrotation Yrotation Xrotation
			JOINT LeftLeg
			{
				OFFSET 2.44443 -6.71602 0.00000
				CHANNELS 3 Zrotation Yrotation Xrotation
				JOINT LeftFoot
				{
					OFFSET 2.62838 -7.22137 0.00000
					CHANNELS 3 Zrotation Yrotation Xrotation
					JOINT LeftToeBase
					{
						OFFSET 0.24036 -0.66037 2.29953
						CHANNELS 3 Zrotation Yrotation Xrotation
						End Site
						{
							OFFSET 0.00000 -0.00000 1.19837
						}
					}
				}
			}
		}
	}
	JOINT RHipJoint
	{
		OFFSET 0 0 0
		CHANNELS 3 Zrotation Yrotation Xrotation
		JOINT RightUpLeg
		{
			OFFSET -1.37055 -1.84941 0.69647
			CHANNELS 3 Zrotation Yrotation Xrotation
			JOINT RightLeg
			{
				OFFSET -2.54834 -7.00152 0.00000
				CHANNELS 3 Zrotation Yrotation Xrotation
				JOINT RightFoot
				{
					OFFSET -2.65692 -7.29983 0.00000
					CHANNELS 3 Zrotation Yrotation Xrotation
					JOINT RightToeBase
					{
						OFFSET -0.18839 -0.51760 2.29390
						CHANNELS 3 Zrotation Yrotation Xrotation
						End Site
						{
							OFFSET -0.00000 -0.00000 1.18261
						}
					}
				}
			}
		}
	}
	JOINT LowerBack
	{
		OFFSET 0 0 0
		CHANNELS 3 Zrotation Yrotation Xrotation
		JOINT Spine
		{
			OFFSET 0.05220 2.15489 0.05011
			CHANNELS 3 Zrotation Yrotation Xrotation
			JOINT Spine1
			{
				OFFSET -0.07653 2.14219 -0.05668
				CHANNELS 3 Zrotation Yrotation Xrotation
				JOINT Neck
				{
					OFFSET 0 0 0
					CHANNELS 3 Zrotation Yrotation Xrotation
					JOINT Neck1
					{
						OFFSET 0.01370 1.58638 0.01447
						CHANNELS 3 Zrotation Yrotation Xrotation
						JOINT Head
						{
							OFFSET 0.23548 1.54190 -0.21747
							CHANNELS 3 Zrotation Yrotation Xrotation
							End Site
							{
								OFFSET 0.07132 1.59823 -0.08163
							}
						}
					}
				}
				JOINT LeftShoulder
				{
					OFFSET 0 0 0
					CHANNELS 3 Zrotation Yrotation Xrotation
					JOINT LeftArm
					{
						OFFSET 3.47056 1.45357 -0.58896
						CHANNELS 3 Zrotation Yrotation Xrotation
						JOINT LeftForeArm
						{
							OFFSET 5.19069 -0.00000 0.00000
							CHANNELS 3 Zrotation Yrotation Xrotation
							JOINT LeftHand
							{
								OFFSET 3.30016 -0.00000 0.00000
								CHANNELS 3 Zrotation Yrotation Xrotation
								JOINT LeftFingerBase
								{
									OFFSET 0 0 0
									CHANNELS 3 Zrotation Yrotation Xrotation
									JOINT LeftHandIndex1
									{
										OFFSET 0.70770 -0.00000 0.00000
										CHANNELS 3 Zrotation Yrotation Xrotation
										End Site
										{
											OFFSET 0.57056 -0.00000 0.00000
										}
									}
								}
								JOINT LThumb
								{
									OFFSET 0 0 0
									CHANNELS 3 Zrotation Yrotation Xrotation
									End Site
									{
										OFFSET 0.57928 -0.00000 0.57928
									}
								}
							}
						}
					}
				}
				JOINT RightShoulder
				{
					OFFSET 0 0 0
					CHANNELS 3 Zrotation Yrotation Xrotation
					JOINT RightArm
					{
						OFFSET -2.89018 2.03305 -0.26731
						CHANNELS 3 Zrotation Yrotation Xrotation
						JOINT RightForeArm
						{
							OFFSET -5.23924 -0.00000 0.00000
							CHANNELS 3 Zrotation Yrotation Xrotation
							JOINT RightHand
							{
								OFFSET -3.32953 -0.00000 0.00000
								CHANNELS 3 Zrotation Yrotation Xrotation
								JOINT RightFingerBase
								{
									OFFSET 0 0 0
									CHANNELS 3 Zrotation Yrotation Xrotation
									JOINT RightHandIndex1
									{
										OFFSET -0.60741 -0.00000 0.00000
										CHANNELS 3 Zrotation Yrotation Xrotation
										End Site
										{
											OFFSET -0.48971 -0.00000 0.00000
										}
									}
								}
								JOINT RThumb
								{
									OFFSET 0 0 0
									CHANNELS 3 Zrotation Yrotation Xrotation
									End Site
									{
										OFFSET -0.49719 -0.00000 0.49719
									}
								}
							}
						}
					}
				}
			}
		}
	}
}
MOTION
Frames: 12
Frame Time: 0.0454545
0.00 0.00 0.00 0 0 0 0 0 0 -21 0 0 0 0 0 0 0 0 0 0 0 0 0 0 21 0 0 0 0 0 0 0 0 0 0 0 0 0 0 0 0 0 0 0 0 0 0 -16 0 0 21 0 0 11 0 0 0 -8 0 0 0 0 0 0 0 0 0 0 0 0 0 0 0 0 0 0 0 0 8 0 0 0 0 0 0 0 0 0 0 0 0 0 0 0 0 0
0.00 0.00 0.00 -175.9790 -56.2971 175.1230 0.0000 0.0000 0.0000 -16.9050 7.4502 -6.5956 2.5547 9.9366 28.7718 1.7432 8.6064 -29.3114 0.9238 -6.1233 -17.1425 0.0000 0.0000 0.0000 23.2430 3.6667 -13.0220 -4.7601 -13.1084 39.7758 -0.8079 -7.2268 -21.0939 -3.3767 11.2812 -33.2341 0.5493 0.0621 -8.0023 -6.7643 0.1007 0.1653 -7.4531 0.0420 4.6949 -5.4602 -6.5007 -14.2721 16.2867 -11.9875 17.4644 4.8914 -4.7878 9.2418 -0.0000 -0.0000 0.0000 -72.3952 -5.6012 46.2677 20.1965 -30.8784 -5.6319 -0.0000 0.0000 -10.8307 9.6950 -7.9586 -1.3551 -7.1250 0.0000 -0.0000 -12.4078 21.9680 7.0277 -0.0000 -0.0000 0.0000 81.8122 -4.7101 61.7814 -37.0660 46.2322 -16.2876 0.0000 -0.0000 -7.2108 5.6430 -10.2842 -1.0106 7.1250 -0.0000 -0.0000 27.7164 -38.6773 4.7585
0.00 0.00 0.00 -173.8430 -53.0254 167.9900 0.0000 0.0000 0.0000 -14.9155 11.2420 5.7786 1.9984 8.8628 25.3672 1.9958 12.7019 -33.7608 0.9578 -6.2318 -17.4585 0.0000 0.0000 0.0000 22.8145 2.9144 -9.8069 -8.3749 -16.3882 53.9021 -0.8501 7.1422 -16.4791 -1.8481 8.5422 -24.3736 -0.0104 0.8753 -13.6516 -6.8009 1.0733 -3.0345 -7.0630 0.3732 4.5856 -8.1638 -8.0569 -15.1629 20.0545 -12.1034 5.0676 6.4345 -5.2308 5.8829 0.0000 0.0000 0.0000 -70.7997 2.9411 36.4828 18.9605 -29.3695 -5.0114 -0.0000 0.0000 -8.8020 14.4368 -5.0661 -1.3023 -7.1250 0.0000 -0.0000 -9.1337 24.7482 4.5262 0.0000 0.0000 0.0000 73.3396 3.1376 73.2295 -54.5641 54.6783 -29.8600 0.0000 -0.0000 -11.3539 20.0485 -10.8712 -3.9373 7.1250 -0.0000 -0.0000 38.5933 -37.7468 8.5036
0.00 0.00 0.00 -176.6870 -50.9067 170.3100 0.0000 0.0000 0.0000 -16.5184 12.9446 8.5561 1.4425 7.5929 21.4841 2.0205 12.1669 -33.5050 0.7211 -5.4262 -15.1283 0.0000 0.0000 0.0000 19.9591 11.1161 -16.2325 -12.6018 -18.6336 67.8840 0.2243 9.1666 -0.6486 -0.9074 6.0703 -16.9886 -1.0727 0.0751 -13.2510 -6.1742 0.1949 -2.4590 -5.9190 -0.0460 4.8583 -7.7809 -8.5212 -14.8891 20.6773 -12.4622 1.5745 6.5320 -5.6207 4.8560 0.0000 0.0000 0.0000 -70.9811 3.7942 33.3938 16.3803 -26.0336 -3.8113 -0.0000 0.0000 -7.5957 13.0537 -4.0217 -0.9316 -7.1250 0.0000 -0.0000 -10.2357 25.8322 4.8257 0.0000 0.0000 0.0000 72.2028 6.9577 72.2970 -62.1597 56.8585 -36.1439 0.0000 -0.0000 -11.7119 20.7623 -10.7137 -4.0314 7.1250 -0.0000 -0.0000 38.9988 -37.5294 8.9075
0.00 0.00 0.00 -180.4120 -51.8027 173.1880 0.0000 0.0000 0.0000 -18.4075 13.9976 11.4342 0.8481 5.8736 16.4180 1.6378 11.5901 -30.7687 0.6615 -5.2019 -14.4854 0.0000 0.0000 0.0000 15.4239 17.5049 -26.7336 -17.9627 -19.9002 84.0339 0.1760 8.8504 8.3897 -0.5589 4.7887 -13.3068 -2.8296 -1.9405 -9.8177 -6.9531 -2.4513 -1.9308 -6.0186 -1.4043 3.2933 -7.2751 -8.1711 -14.1495 20.9731 -12.1127 0.9434 6.6134 -5.5492 4.4878 -0.0000 -0.0000 0.0000 -71.3326 -1.1212 36.2230 14.9779 -24.1153 -3.2169 -0.0000 0.0000 -5.1025 10.6889 -5.1375 -0.9683 -7.1250 0.0000 -0.0000 -11.9037 24.7468 5.9508 -0.0000 -0.0000 0.0000 73.9277 4.2686 69.6421 -72.1617 58.7628 -44.6158 0.0000 -0.0000 -11.7585 18.7295 -10.1790 -3.4290 7.1250 -0.0000 -0.0000 37.3793 -37.3153 8.6094
0.00 0.00 0.00 -180.6700 -62.9379 179.9660 0.0000 0.0000 0.0000 -17.0365 9.6548 3.9888 0.9893 6.3306 17.7466 1.6018 5.0738 -26.1943 1.1345 -6.7645 -19.0196 0.0000 0.0000 0.0000 7.8716 16.1984 -33.6616 -5.3724 -13.7912 42.4076 0.2113 -8.1624 -3.8819 -0.6024 4.9684 -13.8185 -0.4035 -0.2866 -1.3206 -7.5626 -0.4257 3.7146 -7.7665 -0.2186 4.5591 -7.2861 -7.2777 -8.7250 18.5080 -12.5128 13.1748 5.9900 -5.4331 7.1412 -0.0000 -0.0000 0.0000 -70.3614 -16.4008 49.7864 29.6256 -40.5703 -11.1653 -0.0000 0.0000 -8.7733 9.1848 -6.9433 -1.1198 -7.1250 0.0000 -0.0000 -12.8522 22.9848 6.9850 -0.0000 -0.0000 0.0000 69.8045 -0.5959 69.3845 -77.9348 59.4428 -49.5708 0.0000 -0.0000 -8.9334 14.2871 -9.8249 -2.4882 7.1250 -0.0000 -0.0000 34.0907 -37.4812 7.3927
0.00 0.00 0.00 -182.3980 -60.3348 191.9740 0.0000 0.0000 0.0000 -14.4124 9.5978 5.9458 0.3009 3.5271 9.7498 1.8991 6.5379 -29.0561 1.3591 -7.3792 -20.8437 0.0000 0.0000 0.0000 8.3071 24.7838 -41.9005 -8.0375 -16.1468 52.6977 -0.6352 -5.3419 -17.9416 -0.1623 2.5956 -7.1547 -0.8787 -3.4129 1.4694 -7.9091 -4.7889 6.1866 -7.9838 -2.4500 5.0166 -5.3564 -3.6871 -6.7998 16.3988 -10.4869 25.6842 5.5155 -4.4143 10.4801 0.0000 0.0000 0.0000 -71.1904 -20.3178 44.7852 26.6997 -37.8913 -9.3141 -0.0000 0.0000 -9.1023 11.6260 -6.8956 -1.4150 -7.1250 0.0000 -0.0000 -11.0864 22.9715 5.9899 0.0000 0.0000 0.0000 71.0307 1.4210 68.5471 -75.6151 59.2035 -47.5756 0.0000 -0.0000 -5.8563 12.0118 -8.1699 -1.7319 7.1250 -0.0000 -0.0000 31.7845 -36.2623 7.8486
0.00 0.00 0.00 -185.5240 -59.6334 195.1810 0.0000 0.0000 0.0000 -17.9016 13.1947 -9.1224 5.1989 13.6043 41.6750 0.3960 11.0225 -20.5045 1.1049 -6.6788 -18.7672 0.0000 0.0000 0.0000 10.8997 15.0326 -33.8143 -7.9145 -16.0560 52.2543 -2.0329 5.0028 -25.8548 -0.1421 2.4296 -6.6944 8.4648 -2.6802 0.1592 3.2310 -4.5969 7.4701 -1.6029 -2.0319 7.4464 -6.0530 -4.1587 -2.5093 16.6050 -12.8717 28.6648 5.6623 -5.7827 11.1445 -0.0000 0.0000 0.0000 -76.2703 -13.3037 40.5596 23.7301 -34.8776 -7.5517 -0.0000 0.0000 -8.3214 16.5537 -5.6625 -1.6799 -7.1250 0.0000 -0.0000 -7.5338 24.0798 3.8362 -0.0000 0.0000 0.0000 70.7404 5.5457 59.9038 -61.2898 56.6439 -35.4164 0.0000 0.0000 1.4349 1.7181 -11.5878 -0.3452 7.1250 -0.0000 -0.0000 25.0350 -40.1965 3.1976
0.00 0.00 0.00 -182.8160 -64.4880 191.2220 0.0000 0.0000 0.0000 -14.3288 5.0712 -18.5022 10.5179 17.6909 61.2056 0.7831 4.0702 -18.6757 0.7891 -5.6707 -15.8320 0.0000 0.0000 0.0000 15.0004 13.8806 -29.0668 -7.7039 -15.8971 51.4890 -2.3791 1.0109 -28.9280 -0.1861 2.7788 -7.6634 10.4454 -2.3908 0.2360 3.6144 -4.1843 6.6907 -2.2374 -1.7661 6.5247 -6.8103 -5.0119 -1.3866 17.6464 -13.2524 25.5884 6.0830 -6.0132 9.9404 0.0000 0.0000 0.0000 -76.9415 -14.5081 42.3363 23.9225 -35.0822 -7.6620 -0.0000 0.0000 -8.3071 18.5420 -6.5044 -2.1759 -7.1250 0.0000 -0.0000 -6.0411 23.1319 3.1994 0.0000 0.0000 0.0000 71.1202 1.7414 60.2660 -63.5674 57.1879 -37.3248 0.0000 0.0000 0.4076 -1.6755 -11.1872 0.3252 7.1250 -0.0000 -0.0000 22.1102 -40.1312 2.8132
0.00 0.00 0.00 -156.1940 -60.2908 161.0740 0.0000 0.0000 0.0000 -3.3329 -13.9475 -32.7789 6.3249 14.7359 46.2720 0.7321 -3.0308 -15.4215 0.1667 -2.6300 -7.2504 0.0000 0.0000 0.0000 37.0044 1.9587 -6.4079 -4.4148 -12.6929 38.2294 -2.5909 3.5375 -29.6107 -0.1354 2.3713 -6.5330 8.0217 -0.1722 -0.3598 0.6834 -0.8942 6.8831 -3.8409 -0.0844 7.3714 -5.8946 -5.6213 -0.9176 17.6723 -13.0734 22.4648 5.8612 -5.9810 8.6618 0.0000 -0.0000 0.0000 -75.4424 -11.4177 44.7944 19.5247 -30.0654 -5.2911 -0.0000 0.0000 -10.9622 16.4737 -5.0506 -1.4913 -7.1250 0.0000 -0.0000 -7.6188 24.7142 3.7674 0.0000 -0.0000 0.0000 73.7036 2.4061 65.7679 -57.3901 55.5734 -32.1787 0.0000 -0.0000 -3.8380 3.1306 -10.6628 -0.5798 7.1250 -0.0000 -0.0000 25.8537 -39.2346 3.9901
0.00 0.00 0.00 -158.5540 -59.0520 162.7070 0.0000 0.0000 0.0000 -4.8231 -8.7550 -21.2364 4.9956 13.3789 40.8038 1.1527 -5.7374 -19.2008 0.1620 -2.5928 -7.1471 0.0000 0.0000 0.0000 34.7615 -9.4138 6.5227 -1.5698 -7.9057 22.4279 -0.9836 6.5671 -17.6967 -0.3657 3.8848 -10.7528 6.3395 -0.0305 -8.8792 -3.2734 -0.5671 0.2376 -7.1320 -0.0821 5.1556 -6.5777 -6.0248 -2.2875 17.0832 -12.7209 20.2272 5.6948 -5.9034 8.1071 -0.0000 0.0000 0.0000 -73.6390 -15.3600 46.5723 24.8614 -36.0619 -8.2082 -0.0000 0.0000 -13.1196 15.7685 -6.1979 -1.7462 -7.1250 0.0000 -0.0000 -8.0921 23.5531 4.2251 -0.0000 0.0000 0.0000 71.5169 2.2595 71.9488 -56.1511 55.1939 -31.1591 0.0000 -0.0000 -4.4521 8.3660 -8.5219 -1.2484 7.1250 -0.0000 -0.0000 29.1932 -36.8826 6.5314
0.00 0.00 0.00 -164.9470 -54.7473 166.3540 0.0000 0.0000 0.0000 -7.4935 -0.3905 -8.3213 3.1346 10.9098 31.9764 1.6981 -5.4296 -23.4887 0.0977 -2.0157 -5.5492 0.0000 0.0000 0.0000 31.0036 -4.8292 8.3925 -3.7012 -11.7517 34.8593 0.1186 8.3408 -3.0261 -0.2494 3.2137 -8.8743 4.1504 0.4665 -11.8777 -4.2489 0.1204 -2.2802 -6.8411 0.0558 4.2888 -7.7485 -7.0746 -2.1627 18.4766 -12.7023 12.9445 6.2801 -6.0517 5.9182 -0.0000 -0.0000 0.0000 -68.9062 -11.7311 40.0265 21.3735 -32.2618 -6.2481 -0.0000 0.0000 -11.3437 15.0865 -2.9375 -0.7915 -7.1250 0.0000 -0.0000 -8.7822 26.9116 3.8989 -0.0000 -0.0000 0.0000 73.3809 5.3240 69.9169 -54.7997 54.7570 -30.0524 0.0000 -0.0000 -3.4422 3.1977 -7.1972 -0.4010 7.1250 -0.0000 -0.0000 24.7844 -36.0891 5.8879
